#define contractOnArrow_width 13
#define contractOnArrow_height 13
static char contractOnArrow_bits[] = {
   0x00, 0x00, 0xff, 0x1f, 0xff, 0x1f, 0x03, 0x18, 0x07, 0x1c, 0x0e, 0x0e,
   0x1c, 0x07, 0xb8, 0x03, 0xf0, 0x01, 0xe0, 0x00, 0x00, 0x00, 0x00, 0x00,
   0x00, 0x00};
