#define contractArrow_width 13
#define contractArrow_height 13
static char contractArrow_bits[] = {
   0x00, 0x00, 0x00, 0x00, 0xff, 0x1f, 0x01, 0x10, 0x02, 0x08, 0x04, 0x04,
   0x08, 0x02, 0x10, 0x01, 0xe0, 0x00, 0x00, 0x00, 0x00, 0x00, 0x00, 0x00,
   0x00, 0x00};
