#define expandOnArrow_width 13
#define expandOnArrow_height 13
static char expandOnArrow_bits[] = {
   0x1e, 0x00, 0x3e, 0x00, 0x76, 0x00, 0xe6, 0x00, 0xc6, 0x01, 0x86, 0x03,
   0x06, 0x03, 0x86, 0x03, 0xc6, 0x01, 0xe6, 0x00, 0x76, 0x00, 0x3e, 0x00,
   0x1e, 0x00};
