#define expandArrow_width 13
#define expandArrow_height 13
static char expandArrow_bits[] = {
   0x0c, 0x00, 0x1c, 0x00, 0x3c, 0x00, 0x7c, 0x00, 0xfc, 0x00, 0xfc, 0x01,
   0xfc, 0x01, 0xfc, 0x01, 0xfc, 0x00, 0x7c, 0x00, 0x3c, 0x00, 0x1c, 0x00,
   0x0c, 0x00};
