P1
# pulldown.pbm
11 12
0 0 0 0 0 0 0 0 0 0 0
0 1 1 1 1 1 1 1 1 1 0
0 1 1 1 1 1 1 1 1 1 0
0 0 1 1 1 1 1 1 1 0 0
0 0 1 1 1 1 1 1 1 0 0
0 0 0 1 1 1 1 1 0 0 0
0 0 0 1 1 1 1 1 0 0 0
0 0 0 0 1 1 1 0 0 0 0
0 0 0 0 1 1 1 0 0 0 0
0 0 0 0 0 1 0 0 0 0 0
0 0 0 0 0 1 0 0 0 0 0
0 0 0 0 0 0 0 0 0 0 0
