#define bookmark_width 25
#define bookmark_height 63
static char bookmark_bits[] = {
   0xff, 0xff, 0xff, 0x01, 0x01, 0x00, 0x00, 0x01, 0xfd, 0xf7, 0x7f, 0x01,
   0x05, 0x14, 0x42, 0x01, 0x55, 0x15, 0x42, 0x01, 0x05, 0x14, 0x42, 0x01,
   0x55, 0x25, 0x25, 0x01, 0x05, 0xc4, 0x18, 0x01, 0x55, 0x05, 0x00, 0x01,
   0x05, 0xc4, 0x01, 0x01, 0x55, 0x25, 0x02, 0x01, 0x05, 0x14, 0x04, 0x01,
   0x55, 0x15, 0x04, 0x01, 0x05, 0x24, 0x02, 0x01, 0x55, 0xc5, 0x01, 0x01,
   0x05, 0x04, 0x00, 0x01, 0x55, 0xc5, 0x01, 0x01, 0x05, 0x24, 0x02, 0x01,
   0x55, 0x15, 0x04, 0x01, 0x05, 0x14, 0x04, 0x01, 0x55, 0x25, 0x02, 0x01,
   0x05, 0xc4, 0x01, 0x01, 0x55, 0x05, 0x00, 0x01, 0x05, 0xf4, 0x7f, 0x01,
   0x55, 0x85, 0x00, 0x01, 0x05, 0x44, 0x01, 0x01, 0x55, 0x25, 0x02, 0x01,
   0x05, 0x14, 0x04, 0x01, 0x55, 0x05, 0x00, 0x01, 0x05, 0xf4, 0x07, 0x01,
   0x55, 0x05, 0x02, 0x01, 0x05, 0x04, 0x04, 0x01, 0x55, 0x05, 0x04, 0x01,
   0x05, 0xf4, 0x03, 0x01, 0x55, 0x05, 0x04, 0x01, 0x05, 0x04, 0x04, 0x01,
   0x55, 0xf5, 0x03, 0x01, 0x05, 0x04, 0x00, 0x01, 0x55, 0xc5, 0x01, 0x01,
   0x05, 0x24, 0x02, 0x01, 0x55, 0x15, 0x04, 0x01, 0x05, 0x14, 0x04, 0x01,
   0x55, 0x25, 0x02, 0x01, 0x05, 0xf4, 0x07, 0x01, 0x55, 0x05, 0x00, 0x01,
   0x05, 0xf4, 0x07, 0x01, 0x55, 0x05, 0x02, 0x01, 0x05, 0x04, 0x04, 0x01,
   0x55, 0x05, 0x04, 0x01, 0x05, 0x04, 0x02, 0x01, 0x55, 0x05, 0x00, 0x01,
   0x05, 0xf4, 0x7f, 0x01, 0x55, 0x85, 0x00, 0x01, 0x05, 0x44, 0x01, 0x01,
   0x55, 0x25, 0x02, 0x01, 0x05, 0x14, 0x04, 0x01, 0x55, 0x05, 0x00, 0x01,
   0x05, 0x24, 0x03, 0x01, 0x55, 0x95, 0x04, 0x01, 0x05, 0x94, 0x04, 0x01,
   0xfd, 0x67, 0x02, 0x01, 0x01, 0x00, 0x00, 0x01, 0xff, 0xff, 0xff, 0x01};
