#define editTile_width 11
#define editTile_height 11
static char editTile_bits[] = {
   0x80, 0x00, 0xc0, 0x01, 0xe0, 0x03, 0xf0, 0x07, 0xf8, 0x03, 0xfc, 0x01,
   0xfc, 0x00, 0x7a, 0x00, 0x32, 0x00, 0x0d, 0x00, 0xa3, 0x02};
