#define menuArrow_width 11
#define menuArrow_height 8
static char menuArrow_bits[] = {
 0x00,0x00,0x00,0x00,0xff,0x07,0xfe,0x03,0xfc,0x01,0xf8,0x00,0x70,0x00,0x20,
 0x00};
