#define newTile_width 11
#define newTile_height 11
static char newTile_bits[] = {
   0x00, 0x00, 0x70, 0x00, 0x70, 0x00, 0x70, 0x00, 0xfe, 0x03, 0xfe, 0x03,
   0xfe, 0x03, 0x70, 0x00, 0x70, 0x00, 0x70, 0x00, 0x00, 0x00};
