#define normalTile_width 11
#define normalTile_height 12
static char normalTile_bits[] = {
   0x20, 0x00, 0x70, 0x00, 0xf8, 0x00, 0xfc, 0x01, 0xfe, 0x03, 0x00, 0x00,
   0x00, 0x00, 0xfe, 0x03, 0xfc, 0x01, 0xf8, 0x00, 0x70, 0x00, 0x20, 0x00};
