#define upDownArrow2_width 11
#define upDownArrow2_height 12
static char upDownArrow2_bits[] = {
   0x20, 0x00, 0x50, 0x00, 0xa8, 0x00, 0x54, 0x01, 0xfe, 0x03, 0x00, 0x00,
   0x00, 0x00, 0xfe, 0x03, 0xfc, 0x01, 0xf8, 0x00, 0x70, 0x00, 0x20, 0x00};
