#define digital.tbm_width 190
#define digital.tbm_height 65
static char digital.tbm_bits[] = { 
0x00, 0x00, 0xff, 0xff, 0x8f, 0xff, 0xff, 0xc7, 0xff, 0xff, 0xe3, 0xff, 0xff, 0xf1, 0xff, 0xff, 0xf8, 0xff, 0x7f, 0xfc, 0xff, 0x3f, 0xbe, 0x20, 0x00, 0x00, 0xff, 0xff, 0x8f, 0xff, 0xff, 0xc7, 0xff, 0xff, 0xe3, 0xff, 0xff, 0xf1, 0xff, 0xff, 0xf8, 0xff, 0x7f, 0xfc, 0xff, 0x3f, 0x88, 0x31, 0x00, 0x00, 0xff, 0xff, 0x8f, 0xff, 0xff, 0xc7, 0xff, 0xff, 0xe3, 0xff, 0xff, 0xf1, 0xff, 0xff, 0xf8, 0xff, 0x7f, 0xfc, 0xff, 0x3f, 0x88, 0x2a, 0x00, 0x00, 0xff, 0xff, 0x8f, 0xff, 0xff, 0xc7, 0xff, 0xff, 0xe3, 0xff, 0xff, 0xf1, 0xff, 0xff, 0xf8, 0xff, 0x7f, 0xfc, 0xff, 0x3f, 0x88, 0x24, 0x00, 0x00, 0xff, 0xff, 0x8f, 0xff, 0xff, 0xc7, 0xff, 0xff, 0xe3, 0xff, 0xff, 0xf1, 0xff, 0xff, 0xf8, 0xff, 0x7f, 0xfc, 0xff, 0x3f, 0x88, 0x20, 0x00, 0x00, 0xff, 0xff, 0x8f, 0xff, 0xff, 0xc7, 0xff, 0xff, 0xe3, 0xff, 0xff, 0xf1, 0xff, 0xff, 0xf8, 0xff, 0x7f, 0xfc, 0xff, 0x3f, 0x88, 0x20, 0x00, 0x00, 0xff, 0xff, 0x8f, 0xff, 0xff, 0xc7, 0xff, 0xff, 0xe3, 0xff, 0xff, 0xf1, 0xff, 0xff, 0xf8, 0xff, 0x7f, 0xfc, 0xff, 0x3f, 0x88, 0x20, 0x00, 0x00, 0xff, 0xff, 0x8f, 0xff, 0xff, 0xc7, 0xff, 0xff, 0xe3, 0xff, 0xff, 0xf1, 0xff, 0xff, 0xf8, 0xff, 0x7f, 0xfc, 0xff, 0x3f, 0x00, 0x00, 0x00, 0x00, 0xff, 0xff, 0x8f, 0xff, 0xff, 0xc7, 0xff, 0xff, 0xe3, 0xff, 0xff, 0xf1, 0xff, 0xff, 0xf8, 0xff, 0x7f, 0xfc, 0xff, 0x3f, 0x00, 0x00, 0x00, 0x00, 0xff, 0x3f, 0x8c, 0x7f, 0xf8, 0xc7, 0xff, 0xff, 0xe3, 0x1f, 0xfe, 0xf1, 0xff, 0xff, 0xf8, 0xff, 0x7f, 0xfc, 0xc3, 0x3f, 0x00, 0x00, 0x00, 0x00, 0xff, 0x3f, 0x8c, 0x7f, 0xf8, 0xc7, 0xff, 0xff, 0xe3, 0x1f, 0xfe, 0xf1, 0xff, 0xff, 0xf8, 0xff, 0x7f, 0xfc, 0xc3, 0x3f, 0x00, 0x00, 0x00, 0x00, 0xff, 0x3f, 0x8c, 0x7f, 0xf8, 0xc7, 0xff, 0xff, 0xe3, 0x1f, 0xfe, 0xf1, 0xff, 0xff, 0xf8, 0xff, 0x7f, 0xfc, 0xc3, 0x3f, 0x00, 0x00, 0x00, 0x00, 0xff, 0x3f, 0x8c, 0x7f, 0xf8, 0xc7, 0xff, 0xff, 0xe3, 0x1f, 0xfe, 0xf1, 0x0f, 0xff, 0xf8, 0xff, 0x7f, 0xfc, 0xc3, 0x3f, 0x00, 0x00, 0x00, 0x00, 0xff, 0x3f, 0x8c, 0xff, 0xff, 0xc7, 0xff, 0xff, 0xe3, 0xff, 0xff, 0xf1, 0x0f, 0xff, 0xf8, 0xff, 0x7f, 0xfc, 0xc3, 0x3f, 0x00, 0x00, 0x00, 0x00, 0xff, 0x3f, 0x8c, 0xff, 0xff, 0xc7, 0xff, 0xff, 0xe3, 0xff, 0xff, 0xf1, 0x0f, 0xff, 0xf8, 0xff, 0x7f, 0xfc, 0xc3, 0x3f, 0x00, 0x00, 0x00, 0x00, 0xff, 0x3f, 0x8c, 0xff, 0xff, 0xc7, 0xff, 0xff, 0xe3, 0xff, 0xff, 0xf1, 0x0f, 0xff, 0xf8, 0xff, 0x7f, 0xfc, 0xc3, 0x3f, 0x00, 0x00, 0x00, 0x00, 0x7f, 0x30, 0x8c, 0x7f, 0xf8, 0xc7, 0x0f, 0x86, 0xe3, 0x1f, 0xfe, 0xf1, 0x0f, 0xff, 0xf8, 0x07, 0x7f, 0xfc, 0xc3, 0x3f, 0x00, 0x00, 0x00, 0x00, 0x3f, 0x20, 0x8c, 0x7f, 0xf8, 0xc7, 0x07, 0x84, 0xe3, 0x1f, 0xfe, 0xf1, 0x03, 0xfc, 0xf8, 0x00, 0x7c, 0xfc, 0xc3, 0x3f, 0x00, 0x00, 0x00, 0x00, 0x1f, 0x00, 0x8c, 0x7f, 0xf8, 0xc7, 0x03, 0x80, 0xe3, 0x1f, 0xfe, 0xf1, 0x03, 0xfc, 0x78, 0x00, 0x78, 0xfc, 0xc3, 0x3f, 0x00, 0x00, 0x00, 0x00, 0x0f, 0x00, 0x8c, 0x7f, 0xf8, 0xc7, 0x03, 0x80, 0xe3, 0x1f, 0xfe, 0xf1, 0x03, 0xfc, 0x78, 0x00, 0x78, 0xfc, 0xc3, 0x3f, 0x00, 0x00, 0x00, 0x00, 0x0f, 0x06, 0x8c, 0x7f, 0xf8, 0xc7, 0x81, 0x80, 0xe3, 0x1f, 0xfe, 0xf1, 0x0f, 0xff, 0x38, 0xf8, 0x70, 0xfc, 0xc3, 0x3f, 0x00, 0x00, 0x00, 0x00, 0x0f, 0x1f, 0x8c, 0x7f, 0xf8, 0xc7, 0xe1, 0x83, 0xe3, 0x1f, 0xfe, 0xf1, 0x0f, 0xff, 0x38, 0xfc, 0x70, 0xfc, 0xc3, 0x3f, 0x00, 0x00, 0x00, 0x00, 0x07, 0x1f, 0x8c, 0x7f, 0xf8, 0xc7, 0xe1, 0x83, 0xe3, 0x1f, 0xfe, 0xf1, 0x0f, 0xff, 0x38, 0xfc, 0x70, 0xfc, 0xc3, 0x3f, 0x00, 0x00, 0x00, 0x00, 0x87, 0x3f, 0x8c, 0x7f, 0xf8, 0xc7, 0xf0, 0x87, 0xe3, 0x1f, 0xfe, 0xf1, 0x0f, 0xff, 0xf8, 0x7f, 0x70, 0xfc, 0xc3, 0x3f, 0x00, 0x00, 0x00, 0x00, 0x87, 0x3f, 0x8c, 0x7f, 0xf8, 0xc7, 0xf0, 0x87, 0xe3, 0x1f, 0xfe, 0xf1, 0x0f, 0xff, 0xf8, 0x1f, 0x70, 0xfc, 0xc3, 0x3f, 0x00, 0x00, 0x00, 0x00, 0x87, 0x3f, 0x8c, 0x7f, 0xf8, 0xc7, 0xf0, 0x87, 0xe3, 0x1f, 0xfe, 0xf1, 0x0f, 0xff, 0xf8, 0x01, 0x70, 0xfc, 0xc3, 0x3f, 0x00, 0x00, 0x00, 0x00, 0x87, 0x3f, 0x8c, 0x7f, 0xf8, 0xc7, 0xf0, 0x87, 0xe3, 0x1f, 0xfe, 0xf1, 0x0f, 0xff, 0xf8, 0x00, 0x70, 0xfc, 0xc3, 0x3f, 0x00, 0x00, 0x00, 0x00, 0x87, 0x3f, 0x8c, 0x7f, 0xf8, 0xc7, 0xf0, 0x87, 0xe3, 0x1f, 0xfe, 0xf1, 0x0f, 0xff, 0x78, 0x80, 0x70, 0xfc, 0xc3, 0x3f, 0x00, 0x00, 0x00, 0x00, 0x87, 0x3f, 0x8c, 0x7f, 0xf8, 0xc7, 0xf0, 0x87, 0xe3, 0x1f, 0xfe, 0xf1, 0x0f, 0xff, 0x38, 0xf8, 0x70, 0xfc, 0xc3, 0x3f, 0x00, 0x00, 0x00, 0x00, 0x07, 0x1f, 0x8c, 0x7f, 0xf8, 0xc7, 0xe0, 0x83, 0xe3, 0x1f, 0xfe, 0xf1, 0x0f, 0xff, 0x38, 0xfc, 0x70, 0xfc, 0xc3, 0x3f, 0x00, 0x00, 0x00, 0x00, 0x0f, 0x1f, 0x8c, 0x7f, 0xf8, 0xc7, 0xe1, 0x83, 0xe3, 0x1f, 0xfe, 0xf1, 0x0f, 0xff, 0x38, 0xfc, 0x70, 0xfc, 0xc3, 0x3f, 0x00, 0x00, 0x00, 0x00, 0x0f, 0x0e, 0x8c, 0x7f, 0xf8, 0xc7, 0xc1, 0x81, 0xe3, 0x1f, 0xfe, 0xf1, 0x0f, 0xff, 0x38, 0x7c, 0x70, 0xfc, 0xc3, 0x3f, 0x00, 0x00, 0x00, 0x00, 0x1f, 0x00, 0x8c, 0x7f, 0xf8, 0xc7, 0x01, 0x80, 0xe3, 0x1f, 0xfe, 0xf1, 0x0f, 0xfc, 0x38, 0x18, 0x70, 0xfc, 0xc3, 0x3f, 0x00, 0x00, 0x00, 0x00, 0x1f, 0x00, 0x8c, 0x7f, 0xf8, 0xc7, 0x03, 0x80, 0xe3, 0x1f, 0xfe, 0xf1, 0x0f, 0xfc, 0x78, 0x00, 0x70, 0xfc, 0xc3, 0x3f, 0x00, 0x00, 0x00, 0x00, 0x3f, 0x20, 0x8c, 0x7f, 0xf8, 0xc7, 0x07, 0x84, 0xe3, 0x1f, 0xfe, 0xf1, 0x1f, 0xfc, 0x78, 0x80, 0x70, 0xfc, 0xc3, 0x3f, 0x00, 0x00, 0x00, 0x00, 0x7f, 0x30, 0x8c, 0x7f, 0xf8, 0xc7, 0x0f, 0x86, 0xe3, 0x1f, 0xfe, 0xf1, 0x3f, 0xfc, 0xf8, 0xe1, 0x60, 0xfc, 0xc3, 0x3f, 0x00, 0x00, 0x00, 0x00, 0xff, 0xff, 0x8f, 0xff, 0xff, 0xc7, 0xff, 0x87, 0xe3, 0xff, 0xff, 0xf1, 0xff, 0xff, 0xf8, 0xff, 0x7f, 0xfc, 0xff, 0x3f, 0x00, 0x00, 0x00, 0x00, 0xff, 0xff, 0x8f, 0xff, 0xff, 0xc7, 0xff, 0x87, 0xe3, 0xff, 0xff, 0xf1, 0xff, 0xff, 0xf8, 0xff, 0x7f, 0xfc, 0xff, 0x3f, 0x00, 0x00, 0x00, 0x00, 0xff, 0xff, 0x8f, 0xff, 0xff, 0xc7, 0xf0, 0x83, 0xe3, 0xff, 0xff, 0xf1, 0xff, 0xff, 0xf8, 0xff, 0x7f, 0xfc, 0xff, 0x3f, 0x00, 0x00, 0x00, 0x00, 0xff, 0xff, 0x8f, 0xff, 0xff, 0xc7, 0xf0, 0xc3, 0xe3, 0xff, 0xff, 0xf1, 0xff, 0xff, 0xf8, 0xff, 0x7f, 0xfc, 0xff, 0x3f, 0x00, 0x00, 0x00, 0x00, 0xff, 0xff, 0x8f, 0xff, 0xff, 0xc7, 0xc0, 0xc1, 0xe3, 0xff, 0xff, 0xf1, 0xff, 0xff, 0xf8, 0xff, 0x7f, 0xfc, 0xff, 0x3f, 0x00, 0x00, 0x00, 0x00, 0xff, 0xff, 0x8f, 0xff, 0xff, 0xc7, 0x01, 0xc0, 0xe3, 0xff, 0xff, 0xf1, 0xff, 0xff, 0xf8, 0xff, 0x7f, 0xfc, 0xff, 0x3f, 0x00, 0x00, 0x00, 0x00, 0xff, 0xff, 0x8f, 0xff, 0xff, 0xc7, 0x03, 0xe0, 0xe3, 0xff, 0xff, 0xf1, 0xff, 0xff, 0xf8, 0xff, 0x7f, 0xfc, 0xff, 0x3f, 0x00, 0x00, 0x00, 0x00, 0xff, 0xff, 0x8f, 0xff, 0xff, 0xc7, 0x07, 0xf8, 0xe3, 0xff, 0xff, 0xf1, 0xff, 0xff, 0xf8, 0xff, 0x7f, 0xfc, 0xff, 0x3f, 0x00, 0x00, 0x00, 0x00, 0xff, 0xff, 0x8f, 0xff, 0xff, 0xc7, 0xff, 0xff, 0xe3, 0xff, 0xff, 0xf1, 0xff, 0xff, 0xf8, 0xff, 0x7f, 0xfc, 0xff, 0x3f, 0x00, 0x00, 0x00, 0x00, 0xff, 0xff, 0x8f, 0xff, 0xff, 0xc7, 0xff, 0xff, 0xe3, 0xff, 0xff, 0xf1, 0xff, 0xff, 0xf8, 0xff, 0x7f, 0xfc, 0xff, 0x3f, 0x00, 0x00, 0x00, 0x00, 0xff, 0xff, 0x8f, 0xff, 0xff, 0xc7, 0xff, 0xff, 0xe3, 0xff, 0xff, 0xf1, 0xff, 0xff, 0xf8, 0xff, 0x7f, 0xfc, 0xff, 0x3f, 0x00, 0x00, 0x00, 0x00, 0xff, 0xff, 0x8f, 0xff, 0xff, 0xc7, 0xff, 0xff, 0xe3, 0xff, 0xff, 0xf1, 0xff, 0xff, 0xf8, 0xff, 0x7f, 0xfc, 0xff, 0x3f, 0x00, 0x00, 0x00, 0x00, 0x00, 0x00, 0x00, 0x00, 0x00, 0x00, 0x00, 0x00, 0x00, 0x00, 0x00, 0x00, 0x00, 0x00, 0x00, 0x00, 0x00, 0x00, 0x00, 0x00, 0x00, 0x00, 0x00, 0x00, 0x00, 0x00, 0x00, 0x00, 0x00, 0x00, 0x00, 0x00, 0x00, 0x00, 0x00, 0x00, 0x00, 0x00, 0x00, 0x00, 0x00, 0x00, 0x00, 0x00, 0x00, 0x00, 0x00, 0x00, 0x00, 0x00, 0x00, 0x00, 0x00, 0x00, 0x00, 0x00, 0x00, 0x00, 0x00, 0x00, 0x00, 0x00, 0x00, 0x00, 0x00, 0x00, 0x00, 0x00, 0x00, 0x00, 0x00, 0x00, 0x00, 0x00, 0x00, 0x00, 0x00, 0x00, 0x00, 0x00, 0x00, 0x00, 0x00, 0x00, 0x00, 0x00, 0x00, 0x00, 0x00, 0x00, 0x00, 0x00, 0x00, 0x00, 0x00, 0x00, 0x00, 0x00, 0x00, 0x00, 0x00, 0x00, 0x00, 0x00, 0x00, 0x00, 0x00, 0x00, 0x00, 0x00, 0x00, 0x00, 0x00, 0x00, 0x00, 0x00, 0x00, 0x00, 0x00, 0x00, 0x1e, 0x00, 0x80, 0x00, 0x00, 0x00, 0x00, 0x7c, 0x00, 0x00, 0x00, 0x00, 0x00, 0x08, 0x80, 0x07, 0x00, 0x20, 0x00, 0x00, 0x00, 0x00, 0x00, 0x00, 0x21, 0x00, 0x80, 0x00, 0x00, 0x00, 0x00, 0x84, 0x00, 0x00, 0x00, 0x00, 0x00, 0x08, 0x40, 0x08, 0x00, 0x20, 0x00, 0x00, 0x00, 0x00, 0x00, 0x00, 0x01, 0x11, 0xc7, 0xe1, 0x68, 0x86, 0x03, 0x84, 0x38, 0x1c, 0x0e, 0x47, 0xe7, 0x68, 0x40, 0x80, 0xa3, 0x71, 0x38, 0x3a, 0x00, 0x00, 0x00, 0x00, 0x01, 0x91, 0x88, 0x10, 0x99, 0x49, 0x04, 0x84, 0x44, 0x22, 0x91, 0xc8, 0x10, 0x99, 0x40, 0x40, 0x64, 0x22, 0x44, 0x06, 0x00, 0x00, 0x00, 0x00, 0x1e, 0x91, 0x80, 0x10, 0x89, 0x48, 0x00, 0x7c, 0x44, 0x02, 0x11, 0x4f, 0x10, 0x88, 0x40, 0x40, 0x24, 0x22, 0x44, 0x02, 0x00, 0x00, 0x00, 0x00, 0x20, 0x11, 0x87, 0xf0, 0x89, 0x88, 0x03, 0x14, 0x7c, 0x1c, 0x9f, 0x48, 0x10, 0x88, 0x40, 0xc0, 0x27, 0x22, 0x7c, 0x02, 0x00, 0x00, 0x00, 0x00, 0x20, 0x11, 0x88, 0x10, 0x88, 0x08, 0x04, 0x24, 0x04, 0x20, 0x81, 0x48, 0x10, 0x88, 0x40, 0x40, 0x20, 0x22, 0x04, 0x02, 0x00, 0x00, 0x00, 0x00, 0x21, 0x91, 0x88, 0x10, 0x89, 0x48, 0x04, 0x44, 0x44, 0x22, 0x91, 0x48, 0x10, 0x89, 0x40, 0x48, 0x24, 0x22, 0x44, 0x02, 0x00, 0x00, 0x00, 0x00, 0x1e, 0x1e, 0x07, 0xe3, 0x88, 0x88, 0x03, 0x84, 0x38, 0x1c, 0x0e, 0x4f, 0xe0, 0x88, 0x80, 0x87, 0x23, 0xc2, 0x38, 0x02, 0x00, 0x00, 0x00, 0x00, 0x00, 0x10, 0x00, 0x00, 0x00, 0x00, 0x00, 0x00, 0x00, 0x00, 0x00, 0x00, 0x00, 0x00, 0x00, 0x00, 0x00, 0x00, 0x00, 0x00, 0x00, 0x00, 0x00, 0x00, 0x00, 0x11, 0x00, 0x00, 0x00, 0x00, 0x00, 0x00, 0x00, 0x00, 0x00, 0x00, 0x00, 0x00, 0x00, 0x00, 0x00, 0x00, 0x00, 0x00, 0x00, 0x00, 0x00, 0x00, 0x00, 0x0e, 0x00, 0x00, 0x00, 0x00, 0x00, 0x00, 0x00, 0x00, 0x00, 0x00, 0x00, 0x00, 0x00, 0x00, 0x00, 0x00, 0x00, 0x00, 0x00, 0x00};
