#define zeus_width 45
#define zeus_height 20
static char zeus_bits[] = {
   0x00, 0x00, 0x00, 0x00, 0x00, 0x00, 0x00, 0x00, 0x00, 0x00, 0x00, 0x0e,
   0x00, 0x00, 0x00, 0x00, 0x00, 0x07, 0x00, 0x00, 0x80, 0x03, 0x00, 0x01,
   0x00, 0x00, 0xf0, 0x01, 0x30, 0x09, 0x00, 0x00, 0x9c, 0x01, 0x33, 0x0f,
   0x00, 0x00, 0xc7, 0x30, 0x33, 0x08, 0x00, 0xe0, 0xe1, 0x30, 0x33, 0x08,
   0x00, 0x3c, 0x60, 0x1c, 0x33, 0x0f, 0x80, 0x07, 0x70, 0x2c, 0xb3, 0x0f,
   0xf0, 0x00, 0x30, 0x3c, 0xff, 0x00, 0x1e, 0x00, 0x18, 0x0c, 0x0f, 0x00,
   0x03, 0x00, 0x18, 0x8c, 0x03, 0x00, 0x00, 0x00, 0x1c, 0xfc, 0x01, 0x00,
   0x00, 0x00, 0x0c, 0x1f, 0x00, 0x00, 0x00, 0x00, 0xfe, 0x01, 0x00, 0x00,
   0x00, 0x00, 0x3f, 0x00, 0x00, 0x00, 0x00, 0x00, 0x0f, 0x00, 0x00, 0x00,
   0x00, 0x80, 0x03, 0x00, 0x00, 0x00, 0x00, 0x00, 0x00, 0x00, 0x00, 0x00};
